<svg width="30" height="30" viewBox="0 0 30 30" fill="none" xmlns="http://www.w3.org/2000/svg">
<g id="carbon:play-filled-alt">
<path id="Vector" d="M6.5603 26.2497C6.31166 26.2497 6.07321 26.1509 5.89739 25.9751C5.72157 25.7993 5.6228 25.5609 5.6228 25.3122V4.68722C5.62283 4.52431 5.66531 4.36422 5.74605 4.22272C5.8268 4.08123 5.94302 3.96322 6.08326 3.88032C6.2235 3.79743 6.38292 3.75251 6.54581 3.74999C6.70871 3.74747 6.86944 3.78745 7.01218 3.86597L25.7622 14.1785C25.9092 14.2594 26.0317 14.3783 26.1171 14.5227C26.2025 14.6672 26.2475 14.8319 26.2475 14.9997C26.2475 15.1675 26.2025 15.3322 26.1171 15.4767C26.0317 15.6211 25.9092 15.74 25.7622 15.821L7.01218 26.1335C6.87376 26.2097 6.71832 26.2497 6.5603 26.2497Z" fill="white"/>
</g>
</svg>
